Coordinates
version=1
nRows=11
nColumns=36
inDegrees=yes

Units are S.I. units (second, meters, Newtons, ...)
If the header above contains a line with 'inDegrees', this indicates whether rotational values are in degrees (yes) or radians (no).

endheader
time	pelvis_tilt	pelvis_list	pelvis_rotation	pelvis_tx	pelvis_ty	pelvis_tz	hip_flexion_r	hip_adduction_r	hip_rotation_r	knee_angle_r	knee_angle_r_beta	ankle_angle_r	subtalar_angle_r	mtp_angle_r	hip_flexion_l	hip_adduction_l	hip_rotation_l	knee_angle_l	knee_angle_l_beta	ankle_angle_l	subtalar_angle_l	mtp_angle_l	lumbar_extension	lumbar_bending	lumbar_rotation	arm_flex_r	arm_add_r	arm_rot_r	elbow_flex_r	pro_sup_r	arm_flex_l	arm_add_l	arm_rot_l	elbow_flex_l	pro_sup_l
      0.00000000	      3.98324653	     -0.93031403	      2.91509389	     -0.90223475	      1.24772832	     -0.07770269	     -7.81893863	      1.00719486	     -1.50511930	      5.88922812	      0.10278642	      9.01212427	    -14.55048664	     -5.92345063	     -6.01502653	     -2.16501518	      5.36543457	      7.15251389	      0.12483492	     12.78068073	     -2.73311662	     -5.92345063	    -10.66573416	      2.56304328	      0.53701180	      7.11283048	     -5.13064504	     18.94033690	     23.10202873	     74.52922643	      7.40728381	     -3.16142696	     27.56351626	     21.99742482	     64.13629451
      0.00416670	      3.98346527	     -0.90155024	      2.32596857	     -0.89578009	      1.24678657	     -0.08184856	     -7.54752274	      0.72776988	     -1.54137995	      6.53576507	      0.11407062	     11.66429073	    -11.39382976	     -5.98727937	     -6.28453192	     -1.32590289	      7.30369330	      7.57097978	      0.13213852	     12.31406757	     -3.67609993	     -5.98727937	     -9.50345101	      3.13163371	      0.44963313	      6.83188160	     -4.74347824	     16.24290163	     22.69534770	     74.37347454	      6.44277091	     -1.96896820	     25.55755032	     21.26841316	     64.05173103
      0.00833330	      3.63590674	     -0.43197730	      1.52045113	     -0.89629453	      1.24600864	     -0.08038965	     -7.22042065	     -0.06972668	     -2.14491631	      6.38244397	      0.11139466	     12.35972910	    -10.26078240	     -6.70408449	     -6.27235822	     -0.71891045	      7.61228863	      7.36646207	      0.12856902	     12.15656251	     -4.06623581	     -6.70408449	     -9.05352938	      2.47032122	      1.25674756	      6.13866499	     -3.80985487	      9.13459503	     23.59168868	     81.19094002	      6.25440361	     -1.70639526	     21.51948212	     21.63929570	     69.01615119
      0.01250000	      4.55392920	     -0.14178362	      0.96534832	     -0.89701853	      1.24759914	     -0.07924031	     -8.19627367	     -0.56296970	     -2.47605586	      6.36260247	      0.11104836	     13.07725994	     -8.90337481	     -6.86513072	     -7.88955063	     -0.36061916	      8.15295866	      6.52388447	      0.11386326	     11.59313478	     -5.05745541	     -6.86513072	    -10.12301797	      2.12378367	      1.83099657	      6.20267972	     -3.62055375	      8.76835447	     23.51613146	     78.10367232	      6.48663490	     -1.85438986	     21.29938247	     21.74212342	     67.56226586
      0.01666670	      5.18225414	     -0.08785308	      0.61733029	     -0.89775331	      1.24865671	     -0.07896315	     -9.12017649	     -0.67736114	     -2.64317987	      5.94888774	      0.10382768	     13.23297742	     -8.20487719	     -6.95381984	     -8.97514327	     -0.26973786	      8.75565572	      5.76950856	      0.10069692	     10.97457950	     -6.31830913	     -6.95381984	    -11.08771689	      2.15027040	      2.31605462	      6.19300816	     -3.80476262	      9.25740049	     24.12147621	     77.27606448	      6.76648795	     -2.02318184	     22.49152428	     22.07244691	     67.46035586
      0.02083330	      5.61947919	     -0.00353911	      0.37879614	     -0.89789006	      1.24959274	     -0.07821784	     -9.55173667	     -0.81616532	     -2.73749078	      5.89752795	      0.10293128	     13.42431506	     -7.80983265	     -7.27210639	     -9.62677979	     -0.16470872	      9.09066427	      5.44801764	      0.09508585	     10.61361131	     -7.03687667	     -7.27210639	    -11.62380762	      2.08570759	      2.78405448	      6.41181806	     -4.13870210	     11.68056959	     24.08584287	     73.68034769	      7.12671997	     -2.09129168	     25.29990096	     21.74770324	     66.05884668
      0.02500000	      5.91334825	      0.06431409	      0.18972629	     -0.89846473	      1.24972500	     -0.07809149	    -10.01747292	     -0.86493826	     -2.76835448	      5.65396529	      0.09868031	     13.48038555	     -7.60611454	     -7.33707593	    -10.01911984	     -0.05618229	      9.49918701	      5.20897945	      0.09091384	     10.45345411	     -7.59298527	     -7.33707593	    -12.22385310	      2.06120305	      3.11015878	      6.76617439	     -4.39503467	     12.78920508	     24.14842544	     72.75098870	      7.51473665	     -2.13689913	     25.84140978	     21.65212394	     65.51005212
      0.02916670	      6.02391469	      0.12801908	      0.00116150	     -0.89854250	      1.24992798	     -0.07762507	    -10.02536413	     -0.95737025	     -3.15854788	      5.89956796	      0.10296689	     13.76379955	     -7.01233393	     -7.42300686	    -10.15858736	      0.05459641	      9.78739092	      5.13323186	      0.08959180	     10.26639777	     -8.14369526	     -7.42300686	    -12.40067123	      2.02279901	      3.37300455	      7.24861907	     -4.74963737	     15.25858502	     23.65904395	     73.07489510	      7.76115133	     -2.04692671	     27.49354177	     21.27447640	     65.51851076
      0.03333330	      6.28126988	      0.17200175	     -0.06554805	     -0.89901247	      1.25021891	     -0.07766111	    -10.42515756	     -0.99038313	     -3.00793017	      5.78627540	      0.10098956	     13.76627844	     -7.10578037	     -7.43199103	    -10.39859505	      0.10459728	      9.98702339	      5.09736098	      0.08896573	     10.22700110	     -8.41530222	     -7.43199103	    -12.87487253	      1.98210305	      3.58301900	      7.46304734	     -4.84303827	     15.43790221	     23.63328069	     72.44712829	      8.07204311	     -1.97561867	     27.27768172	     21.19414411	     65.13144905
      0.03750000	      6.30245264	      0.19087961	     -0.14723760	     -0.89909339	      1.24687758	     -0.07738544	    -10.35985343	     -1.07459274	     -2.84118678	      5.97810663	      0.10433764	     13.89192696	     -7.15889614	     -7.43814281	    -10.40665548	      0.17941596	     10.32052075	      5.18609667	      0.09051446	     10.10456062	     -9.08394058	     -7.43814281	    -12.82285736	      1.93990253	      3.54239868	      7.76040415	     -5.11959429	     17.23209461	     23.50092194	     73.81576033	      8.07852701	     -2.04117464	     28.23924485	     20.98305247	     65.54217681
      0.04166670	      6.37194805	      0.26230127	     -0.09970776	     -0.89919195	      1.24737068	     -0.07754286	    -10.34251058	     -1.16944269	     -3.08991434	      6.27055958	      0.10944191	     14.26607379	     -6.85373974	     -7.44553042	    -10.40795849	      0.29257482	     10.49599421	      5.26382139	      0.09187101	     10.01707432	     -9.56526117	     -7.44553042	    -12.92750868	      1.88027532	      3.60107983	      7.85348375	     -5.26055509	     17.71549837	     23.41989583	     74.20296881	      8.18744859	     -2.01193850	     28.47318942	     20.71868223	     65.54466309
